<svg width="75" height="75" viewBox="0 0 75 75" fill="none" xmlns="http://www.w3.org/2000/svg">
<circle cx="37.5" cy="37.5" r="37.5" fill="white"/>
<g clip-path="url(#clip0_317_8)">
<path d="M37.4855 0C16.816 0 0 16.8172 0 37.4884C0 58.1725 16.816 75 37.4855 75C58.171 75 75 58.1725 75 37.4884C75 16.8172 58.171 0 37.4855 0ZM18.4623 51.2631C22.8084 49.9402 27.2643 49.2693 31.7058 49.2693C39.2491 49.2693 46.696 51.181 53.2448 54.7997C53.6343 55.0119 53.9884 55.7137 54.1473 56.5874C54.3061 57.4608 54.243 58.3591 53.988 58.8263C53.6661 59.4258 53.013 59.8134 52.3237 59.8134C51.9821 59.8134 51.6819 59.7366 51.3816 59.5743C45.3698 56.2699 38.5662 54.523 31.7058 54.523C27.5611 54.523 23.4922 55.1366 19.6156 56.3449C19.4267 56.4022 19.2325 56.4315 19.0382 56.4315C18.1893 56.4317 17.4526 55.891 17.2055 55.0886C16.8718 53.9916 17.562 51.5575 18.4623 51.2631ZM16.827 37.4516C21.6711 36.1348 26.6771 35.4669 31.7061 35.4669C40.7466 35.4669 49.724 37.6544 57.6735 41.7961C58.2307 42.0789 58.6414 42.5584 58.8295 43.1461C59.0203 43.7415 58.9628 44.3816 58.665 44.9528C57.9556 46.3411 57.1264 47.2741 56.6011 47.2741C56.2289 47.2741 55.8696 47.1848 55.5118 47.0061C48.1301 43.1621 40.1208 41.2131 31.7058 41.2131C27.0251 41.2131 22.4329 41.8286 18.061 43.0414C17.8576 43.0965 17.6489 43.1243 17.4411 43.1243C16.3893 43.1245 15.4625 42.4141 15.1881 41.3998C14.8367 40.0805 15.6396 37.7744 16.827 37.4516ZM16.4083 28.4277C16.1862 28.4825 15.9593 28.5101 15.7335 28.5101C14.4625 28.5103 13.3611 27.6514 13.0552 26.4231C12.6718 24.8683 13.6446 23.0621 15.0534 22.7073C20.5323 21.3615 26.1349 20.6791 31.7058 20.6791C42.4901 20.6791 52.8182 23.1037 62.4069 27.887C63.0728 28.2155 63.5693 28.7825 63.8053 29.4836C64.0414 30.1854 63.9893 30.9408 63.6598 31.6082C63.2107 32.507 62.2404 33.4746 61.171 33.4746C60.7586 33.4746 60.3352 33.378 59.9602 33.2019C51.1522 28.7951 41.6461 26.5606 31.7061 26.5606C26.5977 26.5608 21.451 27.1889 16.4083 28.4277Z" fill="#191414"/>
</g>
<defs>
<clipPath id="clip0_317_8">
<rect width="75" height="75" fill="white"/>
</clipPath>
</defs>
</svg>
